<?xml version="1.0" standalone="no"?><!DOCTYPE svg PUBLIC "-//W3C//DTD SVG 1.1//EN" "http://www.w3.org/Graphics/SVG/1.1/DTD/svg11.dtd"><svg t="1690208881781" class="icon" viewBox="0 0 1024 1024" version="1.1" xmlns="http://www.w3.org/2000/svg" p-id="2588" xmlns:xlink="http://www.w3.org/1999/xlink" width="19" height="19"><path d="M399.181003 957.974237c-184.442756 0-334.479911-150.038178-334.479911-334.480934L64.701093 289.013393c0-20.540825 16.623609-37.164435 37.164435-37.164435 20.542872 0 37.163411 16.624632 37.163411 37.164435L139.028938 623.493304c0 143.434783 116.721375 260.152065 260.152065 260.152065 45.729507 0 90.696652-12.047384 130.040728-34.766828 17.820877-10.382465 40.540322-4.285606 50.774407 13.500479 10.305717 17.781992 4.209882 40.500413-13.539364 50.809199C515.790838 942.441473 457.977108 957.974237 399.181003 957.974237M250.522242 586.328869c-20.539802 0-37.164435-16.620539-37.164435-37.164435L213.357807 251.848958c0-20.540825-16.658402-37.164435-37.163411-37.164435s-37.164435 16.623609-37.164435 37.164435l0 297.315476c0 20.543895-16.620539 37.164435-37.163411 37.164435-20.540825 0-37.164435-16.620539-37.164435-37.164435L64.702116 251.848958c0-61.480236 50.013067-111.494327 111.493304-111.494327 61.479213 0 111.493304 50.01409 111.493304 111.494327l0 297.315476C287.6877 569.70833 271.066137 586.328869 250.522242 586.328869M690.111049 846.479911c-9.510608 0-19.020192-3.62762-26.276457-10.886955-14.518668-14.519692-14.518668-38.036291 0-52.553936l210.247468-210.285331c7.04137-6.967692 10.886955-16.328897 10.886955-26.27441 0-9.872858-3.882424-19.238157-10.886955-26.276457-14.081717-14.010085-38.616506-14.010085-52.516074 0L685.609525 656.157237c-14.518668 14.518668-38.07313 14.518668-52.552913 0-14.516622-14.516622-14.516622-38.036291 0-52.550867l135.916553-135.956462c42.031279-42.028209 115.52513-42.101887 157.661809 0 21.048385 21.048385 32.662911 49.068556 32.662911 78.82937 0 29.831422-11.614525 57.852616-32.662911 78.901001L716.383412 835.593979C709.129194 842.85229 699.61961 846.479911 690.111049 846.479911M696.496479 623.493304c-20.542872 0-37.163411-16.620539-37.163411-37.164435L659.333068 177.519066c0-20.539802-16.658402-37.164435-37.163411-37.164435-20.506033 0-37.164435 16.624632-37.164435 37.164435l0 297.316499c0 20.543895-16.621563 37.164435-37.164435 37.164435-20.543895 0-37.163411-16.620539-37.163411-37.164435L510.677377 177.519066c0-61.480236 50.013067-111.493304 111.493304-111.493304 61.479213 0 111.49228 50.01409 111.49228 111.493304l0 408.809803C733.660914 606.872764 717.040375 623.493304 696.496479 623.493304M324.852134 734.98763c-61.480236 0-111.494327-50.01409-111.494327-111.494327L213.357807 474.835565c0-61.480236 50.01409-111.493304 111.494327-111.493304 61.479213 0 111.493304 50.01409 111.493304 111.493304L436.345438 623.493304C436.345438 684.97354 386.331347 734.98763 324.852134 734.98763M324.852134 437.671131c-20.50501 0-37.164435 16.624632-37.164435 37.164435L287.6877 623.493304c0 20.470217 16.659425 37.164435 37.164435 37.164435s37.164435-16.694217 37.164435-37.164435L362.016569 474.835565C362.016569 454.29474 345.357144 437.671131 324.852134 437.671131M473.509872 734.98763c-61.479213 0-111.49228-50.01409-111.49228-111.494327L362.017592 474.835565c0-61.480236 50.013067-111.493304 111.49228-111.493304 61.48126 0 111.494327 50.01409 111.494327 111.493304L585.004199 623.493304C585.004199 684.97354 534.991132 734.98763 473.509872 734.98763M473.509872 437.671131c-20.503986 0-37.163411 16.624632-37.163411 37.164435L436.346461 623.493304c0 20.470217 16.659425 37.164435 37.163411 37.164435 20.506033 0 37.165458-16.694217 37.165458-37.164435L510.67533 474.835565C510.67533 454.29474 494.015905 437.671131 473.509872 437.671131" fill="#ffffff" p-id="2589"></path></svg>