<?xml version="1.0" standalone="no"?><!DOCTYPE svg PUBLIC "-//W3C//DTD SVG 1.1//EN" "http://www.w3.org/Graphics/SVG/1.1/DTD/svg11.dtd"><svg t="1690208785233" class="icon" viewBox="0 0 1024 1024" version="1.1" xmlns="http://www.w3.org/2000/svg" p-id="2321" xmlns:xlink="http://www.w3.org/1999/xlink" width="19" height="19"><path d="M809.286 82.487l-591.109 0c-39.747 0-72.363 32.614-72.363 72.363l0 729.712c0 39.747 32.614 72.363 72.363 72.363l496.329 0 167.138-172.238 0-629.838c0-39.747-32.614-72.363-72.363-72.363zM711.446 889.657l0-67.874c0-16.103 13.249-29.148 29.148-29.148l62.372 0-91.521 97.025zM834.561 739.842l-88.666 0c-44.844 0-81.532 36.689-81.532 81.532l0 85.61-442.516 0c-16.103 0-29.148-13.249-29.148-29.148l0-713.406c0-16.103 13.249-29.148 29.148-29.148l583.568 0c16.103 0 29.148 13.249 29.148 29.148l0 575.414zM266.484 312.818l382.386 0c13.654 0 24.868-11.211 24.868-25.07 0-13.654-11.414-24.868-25.07-24.868l-382.183 0c-13.654 0-24.868 11.211-24.868 24.868 0 13.859 11.211 25.07 24.868 25.07zM266.691 383.344c-13.654 0-24.868 11.414-24.868 25.07s11.211 24.868 24.868 24.868l326.128 0c13.654 0 24.868-11.211 25.07-24.868 0-13.859-11.414-25.07-25.07-25.07l-326.128 0zM714.507 503.807l-448.018 0c-13.654 0-24.868 11.211-24.868 24.868 0 13.859 11.211 25.07 24.868 25.07l448.018 0c13.654 0 24.868-11.211 25.07-25.07 0-13.654-11.414-24.868-25.07-24.868z" fill="#ffffff" p-id="2322"></path></svg>