<?xml version="1.0" standalone="no"?><!DOCTYPE svg PUBLIC "-//W3C//DTD SVG 1.1//EN" "http://www.w3.org/Graphics/SVG/1.1/DTD/svg11.dtd"><svg t="1692802974951" class="icon" viewBox="0 0 1228 1024" version="1.1" xmlns="http://www.w3.org/2000/svg" p-id="1941" xmlns:xlink="http://www.w3.org/1999/xlink" width="38.375" height="32"><path d="M1140.16256 120.34048h-48.64l10.81344-2.70336V66.29376c0-29.71648-35.14368-54.0672-67.584-54.0672H197.0176c-29.73696 0-67.584 24.35072-67.584 54.0672v48.64l10.81344 2.70336H91.58656c-43.23328 2.70336-70.2464 40.5504-70.2464 83.78368v729.68192c0 45.93664 27.01312 81.08032 70.2464 81.08032H1137.4592c45.95712 0 70.26688-35.14368 70.26688-81.1008V201.44128c2.70336-43.23328-24.30976-81.08032-67.56352-81.08032z m-118.90688-2.70336c0 2.70336 0 2.70336 0 0l-835.072 2.70336s-2.70336 0-2.70336-2.70336V66.29376s0-2.70336 2.70336-2.70336h835.072s2.70336 0 2.70336 2.70336v51.34336h-2.70336zM75.3664 931.10272V201.4208c0-16.22016 2.70336-27.0336 16.22016-27.0336h497.2544v783.74912H91.60704c-13.5168 0-16.22016-10.81344-16.22016-27.0336z m1081.01632 0c0 16.22016-2.70336 27.0336-16.22016 27.0336h-497.2544V174.3872h497.2544c16.22016 0 16.22016 13.5168 16.22016 27.0336v729.68192zM399.6672 390.59456h-189.17376c-16.19968 0-27.0336 10.81344-27.0336 27.0336s10.83392 27.0336 27.0336 27.0336h189.17376c16.22016 0 27.0336-10.81344 27.0336-27.0336s-10.81344-27.0336-27.0336-27.0336z m621.58848 0h-189.17376c-16.22016 0-27.0336 10.81344-27.0336 27.0336s10.81344 27.0336 27.0336 27.0336h189.17376c16.22016 0 27.0336-10.81344 27.0336-27.0336s-10.81344-27.0336-27.0336-27.0336z" fill="#ffffff" p-id="1942"></path></svg>