<?xml version="1.0" standalone="no"?><!DOCTYPE svg PUBLIC "-//W3C//DTD SVG 1.1//EN" "http://www.w3.org/Graphics/SVG/1.1/DTD/svg11.dtd"><svg t="1670923281234" class="icon" viewBox="0 0 1024 1024" version="1.1" xmlns="http://www.w3.org/2000/svg" p-id="6335" xmlns:xlink="http://www.w3.org/1999/xlink" width="32" height="32"><path d="M215.245425 743.436932s-43.527491 61.821654-43.527491 94.624981c0 51.412906 43.527491 51.412906 43.527491 51.412906s43.527491 0 43.527491-51.412906c0-32.803327-43.527491-94.624981-43.527491-94.624981z" fill="#DAAAAB" p-id="6336"></path><path d="M200.89397 342.700139l571.534884 0 0 145.72247-571.534884 0 0-145.72247Z" fill="#DAAAAB" p-id="6337"></path><path d="M774.005937 482.114277h-520.437395a91.94394 91.94394 0 0 1-91.786231-91.786231v-21.763746a91.94394 91.94394 0 0 1 91.786231-91.786231h520.437395a91.94394 91.94394 0 0 1 91.786231 91.786231v21.763746a91.94394 91.94394 0 0 1-91.786231 91.786231z m-520.437395-167.643924a54.093947 54.093947 0 0 0-53.936239 53.936239v21.763745a54.093947 54.093947 0 0 0 53.936239 53.936239h520.437395a54.093947 54.093947 0 0 0 53.936239-53.936239v-21.763745a54.093947 54.093947 0 0 0-53.936239-53.936239h-520.437395z" fill="#892127" p-id="6338"></path><path d="M839.139465 117.965809c-70.495611-20.817496-167.013091 23.498537-194.454335 5.204374C347.089565-76.803943 315.547905 27.125828 315.547905 27.125828c50.466656 33.118743 68.918528 110.395811 29.964577 103.92977-291.287232-48.889573-258.326197 78.854151-258.326197 78.854151s97.779147-6.939165 108.818728 114.653935a72.703527 72.703527 0 0 1 57.878946-28.702911h520.437394a72.38811 72.38811 0 0 1 38.323117 11.039581c22.709995-82.63915 76.488526-74.911443 122.066226-74.911443 15.928538-0.315417-31.699369-95.255814-95.571231-114.023102z" fill="#912228" p-id="6339"></path><path d="M782.679893 477.383028a68.445403 68.445403 0 0 1-44.158324 15.77083H247.575627a68.445403 68.445403 0 0 1-44.158324-15.77083 119.700601 119.700601 0 0 0-64.187279 111.342061 149.192053 149.192053 0 0 0 53.147698 119.858309 68.287694 68.287694 0 0 1 11.039581 11.354997c18.451871-28.702911 36.588326-51.09749 36.588326-51.097489s75.542276 93.363314 75.542276 142.726012a70.653319 70.653319 0 0 1-31.54166 64.660404c46.366241 66.395195 114.811643 128.532266 209.436624 128.532265 171.902048 0 258.010781-205.020792 280.405359-268.104112a63.08332 63.08332 0 0 1 20.186663-28.072077 149.192053 149.192053 0 0 0 53.147697-120.016018 119.700601 119.700601 0 0 0-64.502695-111.184352z m-395.847836 220.00308a49.835823 49.835823 0 1 1 49.835823-49.835823 49.835823 49.835823 0 0 1-49.835823 49.835823z m242.239951 0a49.835823 49.835823 0 1 1 49.835823-49.835823 49.835823 49.835823 0 0 1-49.678115 49.835823z" fill="#DAAAAB" p-id="6340"></path><path d="M240.005629 913.604189a97.306022 97.306022 0 0 1-99.198522-101.406438c0-54.882489 67.341445-140.991221 80.904359-157.708301a24.444787 24.444787 0 0 1 36.746034 0c13.562914 16.71708 80.904359 102.668104 80.904358 157.708301a97.306022 97.306022 0 0 1-99.356229 101.406438z m0-205.020791c-25.548745 35.642076-51.886031 81.062067-51.886032 103.614353a52.043739 52.043739 0 1 0 103.929771 0c-0.157708-23.025412-26.494995-68.445403-52.043739-103.614353z" fill="#892127" p-id="6341"></path><path d="M828.415301 428.808871a18.924996 18.924996 0 0 0-19.713538 2.83875 53.936239 53.936239 0 0 1-34.695826 12.616664h-520.437395a53.936239 53.936239 0 0 1-34.695826-12.616664 18.924996 18.924996 0 0 0-19.713537-2.83875 144.933929 144.933929 0 0 0-78.854151 135.156014 176.475589 176.475589 0 0 0 63.08332 141.937471 49.047282 49.047282 0 0 1 15.770831 21.132913c8.043123-12.932081 15.77083-25.07562 23.340828-34.695827a91.155398 91.155398 0 0 0-15.77083-15.77083 139.414138 139.414138 0 0 1-49.362698-112.446018 110.395811 110.395811 0 0 1 47.31249-95.571231 91.786231 91.786231 0 0 0 47.31249 13.562914h520.437395a91.94394 91.94394 0 0 0 47.31249-13.562914 110.395811 110.395811 0 0 1 47.31249 95.571231 139.414138 139.414138 0 0 1-49.362698 112.446018 86.424149 86.424149 0 0 0-27.283536 38.007701c-22.552287 63.08332-109.607269 271.573695-279.143693 271.573695-94.624981 0-162.597259-63.871862-208.963499-131.686432a66.710611 66.710611 0 0 1-27.91437 25.706453c51.886031 73.965193 129.163099 143.829971 236.562452 143.829971 194.296627 0 290.183274-227.099954 315.416603-296.649315a48.889573 48.889573 0 0 1 15.77083-21.29062 176.633297 176.633297 0 0 0 63.08332-141.937471 144.933929 144.933929 0 0 0-76.803942-135.313723z" fill="#892127" p-id="6342"></path></svg>